<svg xmlns="http://www.w3.org/2000/svg" width="48" height="48" fill="none" viewBox="0 0 48 48"><rect width="48" height="48" fill="#bcdfd1" rx="8"/><path stroke="#00b068" stroke-linecap="round" stroke-linejoin="round" stroke-width="2" d="M24.778 27 21 23.223M14 34c2 0 4.608.34 5.975-1.026a3.5 3.5 0 1 0-4.95-4.95C13.658 29.391 15.025 32 14 34"/><path stroke="#00b068" stroke-linecap="round" stroke-linejoin="round" stroke-width="2" d="M20 28c-.491-.492-.737-.738-.876-.995a2 2 0 0 1 .038-1.967c.148-.252.403-.488.913-.96l9.868-9.138a2.204 2.204 0 0 1 3.115 3.115l-9.136 9.869c-.473.51-.709.765-.96.913a2 2 0 0 1-1.967.038c-.258-.139-.504-.384-.995-.876"/></svg>