<svg xmlns="http://www.w3.org/2000/svg" width="48" height="48" fill="none" viewBox="0 0 48 48"><rect width="48" height="48" fill="#bcdfd1" rx="8"/><path stroke="#00b068" stroke-linecap="round" stroke-linejoin="round" stroke-width="2" d="M18.094 23.229Q18.001 22.628 18 22c0-4.418 3.605-8 8.053-8 4.447 0 8.052 3.582 8.052 8 0 .998-.184 1.953-.52 2.834-.07.183-.105.275-.12.346a1 1 0 0 0-.023.193c-.003.074.007.154.027.315l.403 3.27c.043.355.065.532.006.66a.5.5 0 0 1-.257.251c-.13.056-.306.03-.66-.021l-3.185-.467c-.166-.024-.249-.037-.325-.036a1 1 0 0 0-.2.021c-.074.016-.169.051-.358.122a8.174 8.174 0 0 1-4.07.42M19.632 34C22.596 34 25 31.538 25 28.5S22.596 23 19.632 23s-5.369 2.462-5.369 5.5c0 .61.097 1.198.277 1.747.075.232.113.348.126.427.013.083.015.13.01.213-.005.08-.025.17-.065.351L14 34l2.995-.409c.163-.022.245-.034.316-.033.076 0 .115.005.19.02.07.013.173.05.381.123a5.3 5.3 0 0 0 1.75.299"/></svg>