<svg xmlns="http://www.w3.org/2000/svg" width="48" height="48" fill="none" viewBox="0 0 48 48"><rect width="48" height="48" fill="#bcdfd1" rx="8"/><path stroke="#00b068" stroke-linecap="round" stroke-linejoin="round" stroke-width="2" d="M30.163 14H17.838a.837.837 0 0 0-.837.837 10.05 10.05 0 0 0 2.943 7.106l1.219 1.22c.12.12.181.181.224.24a1 1 0 0 1 0 1.195c-.043.058-.103.118-.224.24l-1.22 1.219A10.05 10.05 0 0 0 17 33.163c0 .462.375.837.837.837h12.325a.837.837 0 0 0 .837-.837 10.05 10.05 0 0 0-2.943-7.106l-1.219-1.22c-.12-.12-.181-.181-.224-.24a1 1 0 0 1 0-1.195c.043-.058.103-.118.224-.24l1.22-1.219A10.05 10.05 0 0 0 31 14.837a.837.837 0 0 0-.837-.837"/></svg>